<?xml version="1.0" encoding="UTF-8"?>
<!-- Generated by Pixelmator Pro 3.4.3 -->
<svg width="1920" height="1200" viewBox="0 0 1920 1200" xmlns="http://www.w3.org/2000/svg">
    <path id="background" fill="#2c49bb" stroke="none" d="M 0 0 L 1920 0 L 1920 1200 L 0 1200 Z"/>
    <path id="text-0" fill="#f4f3f0" stroke="none" d="M 631.123779 650.352051 C 623.342529 650.352051 616.619873 648.424866 610.955811 644.570374 C 605.309814 640.734009 600.966858 635.214722 597.926697 628.012573 C 594.904663 620.828491 593.393677 612.214783 593.393677 602.171509 L 593.393677 602.171509 C 593.393677 592.03772 594.868469 583.324524 597.818115 576.03186 C 600.749695 568.757263 604.95697 563.192749 610.440063 559.338379 C 615.90509 555.501953 622.392456 553.583801 629.902344 553.583801 L 629.902344 553.583801 C 637.59314 553.583801 644.179993 555.275818 649.663086 558.659729 C 655.128113 562.061768 659.398743 566.839111 662.475037 572.99176 L 662.475037 572.99176 L 654.331909 577.741943 C 651.436523 572.403625 648.043518 568.576355 644.152893 566.260071 C 640.262268 563.961853 635.512085 562.812805 629.902344 562.812805 L 629.902344 562.812805 C 621.849548 562.812805 615.534058 566.269104 610.955811 573.181763 C 606.39563 580.112488 604.11554 589.73053 604.11554 602.035828 L 604.11554 602.035828 C 604.11554 610.088501 605.156006 617.05542 607.237122 622.936646 C 609.318115 628.817871 612.303955 633.314697 616.19458 636.427185 C 620.085266 639.5578 624.609253 641.123108 629.766602 641.123108 L 629.766602 641.123108 C 636.190674 641.123108 641.194214 639.702576 644.777222 636.861511 C 648.342102 634.00238 651.66272 629.541687 654.739014 623.479492 L 654.739014 623.479492 L 663.289368 628.636841 C 660.032104 635.694275 655.716187 641.077881 650.341675 644.787537 C 644.949097 648.497192 638.543091 650.352051 631.123779 650.352051 Z M 726.399109 584.663696 L 735.627991 584.663696 L 735.627991 648.180542 L 726.399109 648.180542 L 726.399109 638.815857 C 723.775146 642.434998 720.56311 645.258057 716.763 647.28479 C 712.96283 649.32959 708.80072 650.352051 704.276733 650.352051 L 704.276733 650.352051 C 698.2146 650.352051 692.785828 648.904358 687.990356 646.008972 C 683.194946 643.113647 679.440063 639.08728 676.725647 633.929932 C 674.01123 628.772583 672.654053 622.891357 672.654053 616.286377 L 672.654053 616.286377 C 672.654053 609.771851 673.984131 603.953979 676.644226 598.832764 C 679.322449 593.729736 683.032043 589.73053 687.773193 586.835144 C 692.532471 583.939819 697.943176 582.492126 704.00531 582.492126 L 704.00531 582.492126 C 708.619812 582.492126 712.845215 583.505554 716.681519 585.532288 C 720.53595 587.577087 723.775146 590.454346 726.399109 594.164063 L 726.399109 594.164063 Z M 704.00531 641.937439 C 708.348328 641.937439 712.211853 640.851624 715.595764 638.680176 C 718.997803 636.508606 721.648926 633.477539 723.54895 629.586914 C 725.449036 625.696289 726.399109 621.308044 726.399109 616.422058 L 726.399109 616.422058 C 726.399109 611.536194 725.449036 607.147949 723.54895 603.257263 C 721.648926 599.366638 718.997803 596.335571 715.595764 594.164063 C 712.211853 591.992493 708.348328 590.906738 704.00531 590.906738 L 704.00531 590.906738 C 699.752747 590.906738 695.952637 591.992493 692.604858 594.164063 C 689.25708 596.335571 686.633179 599.348572 684.733093 603.202942 C 682.833008 607.039368 681.882996 611.400452 681.882996 616.286377 L 681.882996 616.286377 C 681.882996 621.262756 682.833008 625.696289 684.733093 629.586914 C 686.633179 633.477539 689.25708 636.508606 692.604858 638.680176 C 695.952637 640.851624 699.752747 641.937439 704.00531 641.937439 Z M 762.609131 648.180542 L 753.407349 648.180542 L 753.407349 549.647949 L 762.609131 549.647949 Z M 807.668091 582.492126 C 813.368347 582.492126 818.525696 583.894592 823.140198 586.699463 C 827.754639 589.504272 831.37384 593.322571 833.997742 598.154175 C 836.621643 603.003906 837.933594 608.414673 837.933594 614.386292 L 837.933594 614.386292 C 837.933594 616.105469 837.888245 617.417419 837.797974 618.322144 L 837.797974 618.322144 L 785.545837 618.322144 C 785.907715 624.836731 788.033936 630.401245 791.924561 635.015686 C 795.815308 639.630127 801.108337 641.937439 807.803833 641.937439 L 807.803833 641.937439 C 813.232666 641.937439 817.738525 640.914978 821.321533 638.870117 C 824.886475 636.843384 827.754639 634.020386 829.926208 630.401245 L 829.926208 630.401245 L 837.255005 635.28717 C 834.269165 639.992126 830.333313 643.674622 825.447449 646.334717 C 820.561523 649.012939 814.770813 650.352051 808.075317 650.352051 L 808.075317 650.352051 C 801.922668 650.352051 796.448669 648.904358 791.653198 646.008972 C 786.857788 643.113647 783.102844 639.08728 780.388489 633.929932 C 777.674011 628.772583 776.316833 622.936646 776.316833 616.422058 L 776.316833 616.422058 C 776.316833 609.907532 777.656006 604.071594 780.334167 598.914246 C 782.994263 593.756897 786.703979 589.73053 791.463135 586.835144 C 796.204285 583.939819 801.605896 582.492126 807.668091 582.492126 Z M 786.088623 610.721863 L 828.704712 610.721863 C 827.799866 604.116821 825.58313 599.158508 822.054382 595.846985 C 818.525696 592.553528 813.730225 590.906738 807.668091 590.906738 L 807.668091 590.906738 C 801.786926 590.906738 796.97345 592.779663 793.227539 596.525574 C 789.463562 600.289551 787.083923 605.021606 786.088623 610.721863 Z M 881.771118 582.492126 C 886.204651 582.492126 890.303406 583.396973 894.067322 585.206543 C 897.813171 587.016113 900.799072 589.685303 903.024841 593.213989 C 905.232544 596.742737 906.336365 600.904785 906.336365 605.700195 L 906.336365 605.700195 L 906.336365 648.180542 L 897.107483 648.180542 L 897.107483 609.771851 C 897.107483 597.195068 891.497681 590.906738 880.278198 590.906738 L 880.278198 590.906738 C 873.763672 590.906738 868.877747 593.213989 865.620483 597.828491 C 862.363159 602.442993 860.734497 608.640808 860.734497 616.422058 L 860.734497 616.422058 L 860.734497 648.180542 L 851.505615 648.180542 L 851.505615 584.663696 L 860.734497 584.663696 L 860.734497 595.249756 C 862.906067 591.178223 865.783386 588.02948 869.366272 585.803711 C 872.931274 583.596008 877.066162 582.492126 881.771118 582.492126 Z M 974.196289 549.647949 L 983.425232 549.647949 L 983.425232 648.180542 L 974.196289 648.180542 L 974.196289 638.815857 C 971.572388 642.434998 968.360352 645.258057 964.560242 647.28479 C 960.760071 649.32959 956.598022 650.352051 952.074036 650.352051 L 952.074036 650.352051 C 946.011841 650.352051 940.583069 648.904358 935.787598 646.008972 C 930.992188 643.113647 927.237305 639.08728 924.522888 633.929932 C 921.808411 628.772583 920.451233 622.891357 920.451233 616.286377 L 920.451233 616.286377 C 920.451233 609.771851 921.781311 603.953979 924.441406 598.832764 C 927.119568 593.729736 930.829285 589.73053 935.570435 586.835144 C 940.329712 583.939819 945.740417 582.492126 951.802551 582.492126 L 951.802551 582.492126 C 956.416992 582.492126 960.642456 583.505554 964.47876 585.532288 C 968.333252 587.577087 971.572388 590.454346 974.196289 594.164063 L 974.196289 594.164063 Z M 951.802551 641.937439 C 956.145569 641.937439 960.009094 640.851624 963.393066 638.680176 C 966.795044 636.508606 969.446167 633.477539 971.346252 629.586914 C 973.246216 625.696289 974.196289 621.308044 974.196289 616.422058 L 974.196289 616.422058 C 974.196289 611.536194 973.246216 607.147949 971.346252 603.257263 C 969.446167 599.366638 966.795044 596.335571 963.393066 594.164063 C 960.009094 591.992493 956.145569 590.906738 951.802551 590.906738 L 951.802551 590.906738 C 947.550049 590.906738 943.749878 591.992493 940.402039 594.164063 C 937.054321 596.335571 934.43042 599.348572 932.530334 603.202942 C 930.630249 607.039368 929.680237 611.400452 929.680237 616.286377 L 929.680237 616.286377 C 929.680237 621.262756 930.630249 625.696289 932.530334 629.586914 C 934.43042 633.477539 937.054321 636.508606 940.402039 638.680176 C 943.749878 640.851624 947.550049 641.937439 951.802551 641.937439 Z M 1050.335083 584.663696 L 1059.564087 584.663696 L 1059.564087 648.180542 L 1050.335083 648.180542 L 1050.335083 638.815857 C 1047.711182 642.434998 1044.499146 645.258057 1040.698975 647.28479 C 1036.898926 649.32959 1032.736816 650.352051 1028.212891 650.352051 L 1028.212891 650.352051 C 1022.150696 650.352051 1016.721863 648.904358 1011.926453 646.008972 C 1007.130981 643.113647 1003.376038 639.08728 1000.661682 633.929932 C 997.947266 628.772583 996.590088 622.891357 996.590088 616.286377 L 996.590088 616.286377 C 996.590088 609.771851 997.920166 603.953979 1000.5802 598.832764 C 1003.258423 593.729736 1006.96814 589.73053 1011.70929 586.835144 C 1016.468567 583.939819 1021.879211 582.492126 1027.941406 582.492126 L 1027.941406 582.492126 C 1032.555786 582.492126 1036.78125 583.505554 1040.617554 585.532288 C 1044.472046 587.577087 1047.711182 590.454346 1050.335083 594.164063 L 1050.335083 594.164063 Z M 1027.941406 641.937439 C 1032.284424 641.937439 1036.147949 640.851624 1039.531738 638.680176 C 1042.933838 636.508606 1045.584961 633.477539 1047.484985 629.586914 C 1049.38501 625.696289 1050.335083 621.308044 1050.335083 616.422058 L 1050.335083 616.422058 C 1050.335083 611.536194 1049.38501 607.147949 1047.484985 603.257263 C 1045.584961 599.366638 1042.933838 596.335571 1039.531738 594.164063 C 1036.147949 591.992493 1032.284424 590.906738 1027.941406 590.906738 L 1027.941406 590.906738 C 1023.688843 590.906738 1019.888672 591.992493 1016.540894 594.164063 C 1013.193054 596.335571 1010.569153 599.348572 1008.669189 603.202942 C 1006.769104 607.039368 1005.819031 611.400452 1005.819031 616.286377 L 1005.819031 616.286377 C 1005.819031 621.262756 1006.769104 625.696289 1008.669189 629.586914 C 1010.569153 633.477539 1013.193054 636.508606 1016.540894 638.680176 C 1019.888672 640.851624 1023.688843 641.937439 1027.941406 641.937439 Z M 1107.853149 582.492126 C 1110.02478 582.492126 1112.105713 582.808838 1114.096313 583.4422 L 1114.096313 583.4422 L 1114.096313 591.856812 C 1112.196167 590.951965 1110.115234 590.499634 1107.853149 590.499634 L 1107.853149 590.499634 C 1103.962524 590.499634 1100.343384 591.585327 1096.995605 593.756897 C 1093.647827 595.928406 1090.960571 599.077087 1088.933838 603.202942 C 1086.889038 607.31073 1085.866577 612.169495 1085.866577 617.779297 L 1085.866577 617.779297 L 1085.866577 648.180542 L 1076.637695 648.180542 L 1076.637695 584.663696 L 1085.866577 584.663696 L 1085.866577 597.421326 C 1088.30957 592.716309 1091.412964 589.051941 1095.177002 586.42804 C 1098.922852 583.804077 1103.148193 582.492126 1107.853149 582.492126 Z M 1189.556519 650.352051 C 1181.775269 650.352051 1175.052612 648.424866 1169.38855 644.570374 C 1163.742554 640.734009 1159.399536 635.214722 1156.359375 628.012573 C 1153.33728 620.828491 1151.826294 612.214783 1151.826294 602.171509 L 1151.826294 602.171509 C 1151.826294 592.03772 1153.292114 583.324524 1156.223755 576.03186 C 1159.17334 568.757263 1163.380615 563.192749 1168.845581 559.338379 C 1174.328735 555.501953 1180.825195 553.583801 1188.334961 553.583801 L 1188.334961 553.583801 C 1196.025757 553.583801 1202.603638 555.275818 1208.068604 558.659729 C 1213.551758 562.061768 1217.831421 566.839111 1220.907715 572.99176 L 1220.907715 572.99176 L 1212.764526 577.741943 C 1209.869263 572.403625 1206.476318 568.576355 1202.585571 566.260071 C 1198.694946 563.961853 1193.944702 562.812805 1188.334961 562.812805 L 1188.334961 562.812805 C 1180.282349 562.812805 1173.966675 566.269104 1169.38855 573.181763 C 1164.828369 580.112488 1162.548218 589.73053 1162.548218 602.035828 L 1162.548218 602.035828 C 1162.548218 610.088501 1163.588745 617.05542 1165.6698 622.936646 C 1167.750854 628.817871 1170.736694 633.314697 1174.627319 636.427185 C 1178.517944 639.5578 1183.041992 641.123108 1188.199341 641.123108 L 1188.199341 641.123108 C 1194.623413 641.123108 1199.61792 639.702576 1203.182739 636.861511 C 1206.765747 634.00238 1210.095459 629.541687 1213.171753 623.479492 L 1213.171753 623.479492 L 1221.722046 628.636841 C 1218.464844 635.694275 1214.139893 641.077881 1208.747192 644.787537 C 1203.372681 648.497192 1196.97583 650.352051 1189.556519 650.352051 Z M 1289.039063 648.180542 L 1237.194092 648.180542 L 1237.194092 555.619629 L 1247.373169 555.619629 L 1247.373169 639.765869 L 1289.039063 639.765869 Z M 1326.606323 648.180542 L 1298.512329 648.180542 L 1298.512329 639.223022 L 1307.469971 639.223022 L 1307.469971 564.577148 L 1298.512329 564.577148 L 1298.512329 555.619629 L 1326.606323 555.619629 L 1326.606323 564.577148 L 1317.648804 564.577148 L 1317.648804 639.223022 L 1326.606323 639.223022 Z"/>
    <path id="Path" fill="#ffffff" stroke="none" d="M 1017.578979 539.874023 L 1017.578979 341.17804 L 1580.900635 341.17804 L 1580.900635 881.17804 L 1017.578979 881.17804 L 1017.578979 682.481995 L 1027.4646 682.481995 L 1027.4646 871.704895 L 1571.018188 871.704895 L 1571.018188 350.651184 L 1027.4646 350.651184 L 1027.4646 539.874023 Z"/>
</svg>
