<?xml version="1.0" encoding="UTF-8"?>
<!-- Generated by Pixelmator Pro 3.5.7 -->
<svg width="1920" height="1200" viewBox="0 0 1920 1200" xmlns="http://www.w3.org/2000/svg">
    <path id="backgroud" fill="#ffffff" stroke="none" d="M 0 0 L 1920 0 L 1920 1200 L 0 1200 Z"/>
    <path id="delim" fill="#bb84e8" stroke="none" d="M 785.324951 449.546387 L 785.324951 449.546387 C 789.338196 449.546387 792.591614 453.951355 792.591614 459.385071 L 792.591614 740.003174 C 792.591614 745.436951 789.338196 749.841858 785.324951 749.841858 L 785.324951 749.841858 C 781.311584 749.841858 778.058167 745.436951 778.058167 740.003174 L 778.058167 459.385071 C 778.058167 453.951355 781.311584 449.546387 785.324951 449.546387 Z"/>
    <path id="date-cli" fill="#bb84e8" stroke="none" d="M 873.360657 611.35791 L 873.360657 611.35791 C 859.468933 611.35791 848.892293 607.04834 841.630737 598.429199 C 834.369181 589.810059 830.738403 577.260193 830.738403 560.779602 L 830.738403 560.779602 L 830.738403 541.694336 C 830.738403 525.119019 834.400757 512.474426 841.725464 503.760559 C 849.081787 495.046692 859.91097 490.689758 874.213013 490.689758 L 874.213013 490.689758 C 881.316732 490.689758 887.473287 491.889506 892.682678 494.289001 C 897.860494 496.688456 902.075358 500.06665 905.327271 504.423584 C 908.579183 508.748942 910.757629 513.879395 911.86261 519.814941 L 911.86261 519.814941 L 918.113892 519.814941 L 912.430969 537.432129 C 912.209981 530.644124 910.694539 524.945374 907.884644 520.335876 C 905.074748 515.726339 901.286092 512.23763 896.518677 509.869751 C 891.751302 507.501872 886.289327 506.317932 880.132751 506.317932 L 880.132751 506.317932 C 870.345479 506.317932 862.862935 509.159403 857.68512 514.842346 C 852.507304 520.525289 849.918396 528.891866 849.918396 539.942078 L 849.918396 539.942078 L 849.918396 561.963562 C 849.918396 572.855855 852.507304 581.143494 857.68512 586.826477 C 862.862935 592.50946 870.345479 595.350952 880.132751 595.350952 L 880.132751 595.350952 C 885.973653 595.350952 891.135701 594.230143 895.618896 591.988525 C 900.133708 589.715332 903.859172 586.589701 906.795288 582.611633 C 909.763102 578.633565 911.79952 574.118754 912.904541 569.0672 L 912.904541 569.0672 L 917.64032 582.801086 L 911.957336 582.801086 C 910.852356 588.010437 908.737061 592.777791 905.61145 597.103149 C 902.517415 601.460083 898.334106 604.917216 893.061523 607.474548 C 887.820557 610.063456 881.253601 611.35791 873.360657 611.35791 Z M 931.137329 608.847961 L 911.957336 608.847961 L 912.809814 580.906738 L 912.430969 574.750244 L 912.430969 526.445068 L 912.572998 522.419617 L 912.099487 489.600525 L 912.099487 451.950928 L 931.137329 451.950928 L 931.137329 608.847961 Z M 1050.005859 608.847961 L 1030.920654 608.847961 L 1031.773071 580.764648 L 1031.062744 577.828491 L 1031.062744 540.983948 L 1031.157349 534.259094 C 1031.157349 524.850647 1028.773682 517.904806 1024.006348 513.42157 C 1019.239014 508.906799 1011.677531 506.649414 1001.321899 506.649414 L 1001.321899 506.649414 C 993.050049 506.649414 985.456991 507.833374 978.542725 510.201294 C 971.628499 512.569173 965.487752 515.347493 960.120483 518.536255 L 960.120483 518.536255 L 961.920105 502.150391 C 964.919413 500.350789 968.48704 498.566976 972.622986 496.79895 C 976.758891 494.999349 981.49469 493.515462 986.830383 492.34729 C 992.166036 491.147542 998.022624 490.547668 1004.400146 490.547668 L 1004.400146 490.547668 C 1012.703613 490.547668 1019.744181 491.557963 1025.521851 493.578552 C 1031.331095 495.599182 1036.035319 498.503825 1039.634521 502.29248 C 1043.233724 506.081095 1045.854207 510.659037 1047.495972 516.026306 C 1049.16923 521.393534 1050.005859 527.392192 1050.005859 534.022278 L 1050.005859 534.022278 L 1050.005859 608.847961 Z M 991.140015 611.35791 L 991.140015 611.35791 C 979.710856 611.35791 970.933797 608.563802 964.808838 602.975586 C 958.683919 597.418905 955.62146 589.462748 955.62146 579.107117 L 955.62146 579.107117 L 955.62146 575.697327 C 955.62146 565.026021 958.920736 557.069885 965.519287 551.828918 C 972.117839 546.587992 982.599752 542.941427 996.965027 540.889221 L 996.965027 540.889221 L 1033.525269 535.679871 L 1034.614624 549.650452 L 999.332947 554.717773 C 990.492778 555.980632 984.178365 558.143311 980.389709 561.205811 C 976.601054 564.236735 974.706726 568.704183 974.706726 574.608154 L 974.706726 574.608154 L 974.706726 576.502441 C 974.706726 582.595866 976.585246 587.252726 980.342285 590.473022 C 984.06779 593.724976 989.687622 595.350952 997.201782 595.350952 L 997.201782 595.350952 C 1003.831909 595.350952 1009.514872 594.198547 1014.250671 591.893738 C 1018.986471 589.620585 1022.806681 586.542338 1025.711304 582.658997 C 1028.647502 578.80719 1030.620728 574.513387 1031.630981 569.777588 L 1031.630981 569.777588 L 1034.614624 582.801086 L 1030.920654 582.801086 C 1029.815674 587.852559 1027.747721 592.540995 1024.716797 596.866394 C 1021.685872 601.223328 1017.439433 604.727824 1011.977478 607.379883 C 1006.547058 610.031901 999.601237 611.35791 991.140015 611.35791 Z M 1120.33252 611.215881 L 1120.33252 611.215881 C 1111.397624 611.215881 1104.215007 609.874064 1098.784668 607.19043 C 1093.322754 604.506795 1089.376261 600.434021 1086.94519 594.972107 C 1084.482544 589.541687 1083.251221 582.753703 1083.251221 574.608154 L 1083.251221 574.608154 L 1083.251221 501.676819 L 1102.194458 501.676819 L 1102.194458 572.382324 C 1102.194458 579.959554 1103.930908 585.547791 1107.403809 589.147034 C 1110.876709 592.714661 1116.717529 594.498474 1124.92627 594.498474 L 1124.92627 594.498474 C 1129.567383 594.498474 1134.050578 593.993327 1138.375854 592.983032 C 1142.669718 591.941162 1146.710978 590.473063 1150.499634 588.578735 L 1150.499634 588.578735 L 1148.747314 605.059326 C 1145.02181 606.953613 1140.680664 608.453288 1135.723877 609.55835 C 1130.735514 610.663371 1125.605062 611.215881 1120.33252 611.215881 Z M 1147.563354 510.343323 L 1064.308105 510.343323 L 1064.308105 494.951965 L 1149.315674 494.951965 L 1147.563354 510.343323 Z M 1101.720825 496.846313 L 1083.393311 496.846313 L 1083.251221 464.406067 L 1102.573364 461.896118 L 1101.720825 496.846313 Z M 1217.369019 611.452637 L 1217.369019 611.452637 C 1199.783407 611.452637 1186.523193 607.143046 1177.588379 598.523865 C 1168.685059 589.93634 1164.233398 577.623291 1164.233398 561.584717 L 1164.233398 561.584717 L 1164.233398 540.983948 C 1164.233398 524.724345 1168.369303 512.206055 1176.641113 503.429077 C 1184.94458 494.620483 1197.068278 490.216187 1213.012207 490.216187 L 1213.012207 490.216187 C 1223.746663 490.216187 1232.697266 492.205221 1239.864014 496.183289 C 1247.062419 500.161357 1252.477051 505.828532 1256.10791 513.184814 C 1259.738688 520.509521 1261.554077 529.270752 1261.554077 539.468506 L 1261.554077 539.468506 L 1261.554077 543.730713 C 1261.554077 546.25647 1261.443604 548.782227 1261.222656 551.307983 C 1261.033203 553.83374 1260.780599 556.312154 1260.464844 558.743225 L 1260.464844 558.743225 L 1242.847656 558.743225 C 1243.005534 554.954569 1243.10026 551.371134 1243.131836 547.99292 C 1243.163411 544.583171 1243.179199 541.45756 1243.179199 538.616089 L 1243.179199 538.616089 C 1243.179199 531.607096 1242.05839 525.671549 1239.816772 520.809448 C 1237.575155 515.947347 1234.212728 512.23763 1229.729492 509.680298 C 1225.277832 507.122965 1219.705404 505.844299 1213.012207 505.844299 L 1213.012207 505.844299 C 1203.066976 505.844299 1195.600179 508.717367 1190.611816 514.463501 C 1185.655029 520.24113 1183.176636 528.497192 1183.176636 539.231689 L 1183.176636 539.231689 L 1183.176636 550.21875 L 1183.271362 552.58667 L 1183.271362 563.621033 C 1183.271362 568.420024 1183.981689 572.76119 1185.402344 576.644531 C 1186.823079 580.496297 1189.064738 583.827128 1192.127319 586.637024 C 1195.158162 589.44696 1199.009928 591.578084 1203.682617 593.030396 C 1208.3868 594.482707 1213.975016 595.208862 1220.447266 595.208862 L 1220.447266 595.208862 C 1227.961426 595.208862 1234.954631 594.230143 1241.42688 592.272705 C 1247.899211 590.28361 1253.976847 587.599976 1259.65979 584.221802 L 1259.65979 584.221802 L 1257.860107 600.797119 C 1252.745443 604.017456 1246.794149 606.606364 1240.006226 608.563843 C 1233.218221 610.489705 1225.672485 611.452637 1217.369019 611.452637 Z M 1256.439453 558.743225 L 1174.273315 558.743225 L 1174.273315 544.299011 L 1256.439453 544.299011 L 1256.439453 558.743225 Z M 1353.286499 554.623047 L 1286.038208 554.623047 L 1286.038208 538.852844 L 1353.286499 538.852844 L 1353.286499 554.623047 Z M 1427.970093 611.452637 L 1427.970093 611.452637 C 1411.394735 611.452637 1399.065877 606.969421 1390.983521 598.002991 C 1382.901082 589.036519 1378.859863 576.344584 1378.859863 559.927185 L 1378.859863 559.927185 L 1378.859863 541.931091 C 1378.859863 525.450541 1382.91687 512.774394 1391.030884 503.902649 C 1399.176392 494.999329 1411.489461 490.547668 1427.970093 490.547668 L 1427.970093 490.547668 C 1432.863729 490.547668 1437.331136 491.005473 1441.372314 491.921082 C 1445.381999 492.83665 1448.981242 494.02061 1452.170044 495.472961 C 1455.39034 496.925232 1458.105509 498.440674 1460.315552 500.019287 L 1460.315552 500.019287 L 1461.973145 516.736633 C 1458.24764 513.895162 1453.843343 511.479919 1448.760254 509.490906 C 1443.677165 507.533427 1437.694255 506.554688 1430.811523 506.554688 L 1430.811523 506.554688 C 1419.761312 506.554688 1411.536825 509.617167 1406.138062 515.742126 C 1400.739217 521.835551 1398.039795 530.723083 1398.039795 542.404724 L 1398.039795 542.404724 L 1398.039795 559.453552 C 1398.039795 570.914205 1400.739217 579.722799 1406.138062 585.879333 C 1411.536825 592.035868 1419.761312 595.114136 1430.811523 595.114136 L 1430.811523 595.114136 C 1437.915283 595.114136 1444.056071 594.119629 1449.233887 592.130615 C 1454.411621 590.173096 1459.00529 587.7736 1463.014893 584.932129 L 1463.014893 584.932129 L 1461.262695 601.838989 C 1457.789795 604.206868 1453.243449 606.401123 1447.623657 608.421753 C 1442.03536 610.442342 1435.484172 611.452637 1427.970093 611.452637 Z M 1505.874023 608.847961 L 1486.788696 608.847961 L 1486.788696 451.950928 L 1505.874023 451.950928 L 1505.874023 608.847961 Z M 1557.494141 608.847961 L 1538.314087 608.847961 L 1538.314087 493.294434 L 1557.494141 493.294434 L 1557.494141 608.847961 Z M 1547.880493 474.351257 L 1547.880493 474.351257 C 1543.93396 474.351257 1540.997762 473.309387 1539.071899 471.225647 C 1537.146037 469.110291 1536.183105 466.237223 1536.183105 462.606445 L 1536.183105 462.606445 L 1536.183105 462.038208 C 1536.183105 458.312703 1537.146037 455.423848 1539.071899 453.371643 C 1540.997762 451.319478 1543.93396 450.293396 1547.880493 450.293396 L 1547.880493 450.293396 C 1551.827026 450.293396 1554.79484 451.319478 1556.783936 453.371643 C 1558.741292 455.423848 1559.719971 458.312703 1559.719971 462.038208 L 1559.719971 462.038208 L 1559.719971 462.606445 C 1559.719971 466.33195 1558.741292 469.220805 1556.783936 471.27301 C 1554.79484 473.325175 1551.827026 474.351257 1547.880493 474.351257 Z"/>
    <path id="faster" fill="#35185a" stroke="none" d="M 831.284546 747.826172 L 831.284546 747.826172 L 830.650146 741.736145 L 844.733215 738.818115 L 839.785156 743.51239 C 839.869751 742.835714 840.081217 741.651571 840.419556 739.959961 C 840.757853 738.268311 841.079264 736.466675 841.383789 734.555054 C 841.671305 732.6604 841.815063 731.205566 841.815063 730.190552 L 841.815063 730.190552 L 841.815063 689.59082 L 843.464539 691.113281 L 831.792053 691.113281 L 831.411377 685.784546 L 843.337585 684.262085 L 841.815063 686.545776 L 841.815063 671.194031 C 841.815063 666.795715 842.660929 662.964091 844.352661 659.699158 C 846.044271 656.451152 848.539449 653.939026 851.838196 652.162781 C 855.136983 650.386576 859.19696 649.498474 864.018127 649.498474 L 864.018127 649.498474 C 865.456034 649.498474 866.893941 649.599976 868.331848 649.802979 C 869.769796 650.022868 870.827087 650.217407 871.503723 650.386597 L 871.503723 650.386597 L 870.108093 667.387756 L 865.160034 667.007141 L 865.160034 662.566528 C 865.160034 662.143636 864.931661 660.942566 864.474915 658.963318 C 864.001241 656.967143 863.426086 654.784892 862.749451 652.416565 L 862.749451 652.416565 L 868.839417 655.842163 C 868.162699 655.842163 867.443746 655.842163 866.682556 655.842163 C 865.921244 655.842163 865.202271 655.842163 864.525635 655.842163 C 863.848999 655.842163 863.256938 655.842163 862.749451 655.842163 L 862.749451 655.842163 C 859.450704 655.842163 856.997803 656.620321 855.390747 658.176636 C 853.78361 659.749919 852.726298 661.915263 852.218811 664.672668 C 851.711283 667.413147 851.45752 670.576538 851.45752 674.162842 C 851.45752 677.766073 851.415243 681.597677 851.330688 685.657654 L 851.330688 685.657654 L 849.681335 684.515808 L 869.473816 684.515808 L 868.839417 691.113281 L 849.681335 691.113281 L 851.330688 688.829529 L 851.330688 726.384399 C 851.330688 729.683105 851.457581 733.066406 851.711365 736.534302 C 851.965068 740.002197 852.218811 742.497396 852.472595 744.019897 L 852.472595 744.019897 L 847.778198 739.325562 L 864.779358 740.594238 L 864.018127 747.191772 L 845.240723 747.191772 C 844.394897 747.191772 843.168457 747.234049 841.561401 747.318604 C 839.954305 747.403239 838.245707 747.487834 836.435608 747.572388 C 834.608622 747.656942 832.891602 747.741536 831.284546 747.826172 Z M 896.751709 748.460449 L 896.751709 748.460449 C 891.084676 748.460449 886.601786 746.997192 883.30304 744.070679 C 880.004333 741.161011 878.35498 737.253255 878.35498 732.347412 L 878.35498 732.347412 C 878.35498 727.949137 879.767497 724.286723 882.592529 721.360168 C 885.43453 718.4505 889.689046 716.530457 895.356079 715.600037 L 895.356079 715.600037 L 917.559143 711.920654 L 917.559143 718.137573 L 896.878601 722.070618 C 894.341125 722.49351 892.353414 723.466227 890.915466 724.98877 C 889.477641 726.51123 888.758728 728.37203 888.758728 730.571167 L 888.758728 730.571167 C 888.758728 733.78536 889.579163 736.297485 891.220032 738.107544 C 892.877828 739.93453 895.229228 740.848022 898.274231 740.848022 L 898.274231 740.848022 C 902.7571 740.848022 906.664836 739.410116 909.997437 736.534302 C 913.346924 733.658488 915.317708 730.105998 915.90979 725.876831 L 915.90979 725.876831 L 915.90979 707.987549 C 915.90979 701.897583 914.894796 697.347026 912.864807 694.335876 C 910.834819 691.341654 907.789836 689.844543 903.729858 689.844543 L 903.729858 689.844543 C 901.953613 689.844543 900.050496 690.013713 898.020508 690.352051 C 895.990519 690.690348 894.087382 691.155558 892.311096 691.747681 C 890.534892 692.339722 889.18158 692.97408 888.25116 693.650757 L 888.25116 693.650757 L 892.184265 688.19519 L 890.661743 697.710754 L 890.788635 702.912598 L 883.429871 703.293213 L 882.161194 686.418945 C 884.69871 685.742269 887.236206 685.192464 889.773682 684.769531 C 892.311157 684.346598 894.848633 684.025208 897.386108 683.805359 C 899.923584 683.602315 902.46106 683.500793 904.998535 683.500793 L 904.998535 683.500793 C 912.526489 683.500793 917.812948 685.547689 920.85791 689.641479 C 923.902873 693.752238 925.425354 700.798014 925.425354 710.778809 L 925.425354 710.778809 L 925.425354 726.384399 C 925.425354 730.190592 925.653748 733.506226 926.110535 736.331299 C 926.584167 739.173258 926.990133 741.397786 927.32843 743.004883 L 927.32843 743.004883 L 923.141663 739.19873 L 935.575256 740.594238 L 934.814026 747.191772 L 918.954773 747.191772 L 916.417297 732.854919 L 918.70105 732.474304 C 918.53182 734.842672 917.40684 737.270223 915.326111 739.756958 C 913.262309 742.260579 910.597982 744.332845 907.33313 745.973755 C 904.085124 747.631551 900.557983 748.460449 896.751709 748.460449 Z M 965.619202 748.460449 L 965.619202 748.460449 C 960.476583 748.460449 956.272807 747.80072 953.007874 746.481262 C 949.759867 745.178691 947.408447 744.104492 945.953613 743.258667 L 945.953613 743.258667 L 945.953613 726.891846 L 953.210815 726.384399 L 953.210815 731.459351 C 953.210815 732.051392 953.422282 733.024089 953.845215 734.377441 C 954.268148 735.730794 954.809469 737.126424 955.469177 738.564331 C 956.145894 740.002238 956.822571 741.228678 957.499207 742.243652 L 957.499207 742.243652 L 953.845215 736.788086 C 955.350789 738.987223 957.076294 740.467407 959.021729 741.228638 C 960.967122 741.989909 963.208557 742.370544 965.746033 742.370544 L 965.746033 742.370544 C 969.129374 742.370544 971.836039 741.567017 973.866028 739.959961 C 975.912903 738.352865 976.93634 735.815348 976.93634 732.347412 L 976.93634 732.347412 C 976.93634 729.217855 975.583028 726.739583 972.876404 724.912598 C 970.152812 723.102539 967.014791 721.351685 963.462341 719.660034 L 963.462341 719.660034 C 961.347758 718.64506 959.233195 717.562378 957.118652 716.411987 C 955.004028 715.278605 953.083984 713.96759 951.358521 712.478943 C 949.632975 711.007222 948.237345 709.256348 947.171631 707.226318 C 946.122803 705.19633 945.598389 702.785726 945.598389 699.994507 L 945.598389 699.994507 C 945.598389 694.750366 947.476156 690.664998 951.231689 687.738403 C 954.987101 684.828735 959.613749 683.373901 965.111633 683.373901 L 965.111633 683.373901 C 967.91982 683.373901 970.880229 683.559998 973.992859 683.93219 C 977.122498 684.321269 980.175944 684.854126 983.153198 685.530762 L 983.153198 685.530762 L 983.026306 703.420044 L 975.769165 703.039429 L 975.769165 698.598877 C 975.769165 698.09139 975.540792 697.16097 975.084045 695.807617 C 974.627299 694.454264 974.119792 693.033264 973.561523 691.544617 C 973.003255 690.072896 972.563436 688.914124 972.242065 688.068298 L 972.242065 688.068298 L 976.530396 692.762695 C 974.415771 691.578532 972.597229 690.774984 971.074768 690.352051 C 969.552266 689.929118 967.615316 689.717651 965.263916 689.717651 L 965.263916 689.717651 C 962.303507 689.717651 959.88444 690.453532 958.006714 691.925293 C 956.145874 693.4139 955.215454 695.511556 955.215454 698.218262 L 955.215454 698.218262 C 955.215454 701.17863 956.568787 703.563883 959.275452 705.374023 C 961.999044 707.200968 965.137065 708.917969 968.689514 710.525024 L 968.689514 710.525024 C 970.871724 711.539998 973.020142 712.639587 975.134766 713.823792 C 977.249349 715.007955 979.194763 716.335897 980.971008 717.807617 C 982.76414 719.296305 984.18512 721.030273 985.233948 723.009521 C 986.299662 725.005656 986.83252 727.357056 986.83252 730.063721 L 986.83252 730.063721 C 986.83252 736.745768 984.929423 741.482422 981.12323 744.273682 C 977.316996 747.06486 972.148987 748.460449 965.619202 748.460449 Z M 1020.936401 749.094849 L 1020.936401 749.094849 C 1015.269368 749.094849 1011.488525 747.572367 1009.593872 744.527405 C 1007.682251 741.482442 1006.72644 737.126424 1006.72644 731.459351 L 1006.72644 731.459351 L 1006.72644 686.926392 L 1010.786499 691.113281 L 996.069031 691.113281 L 995.688354 686.03833 C 996.787923 685.615397 998.141276 685.124817 999.748413 684.566589 C 1001.355469 684.025208 1002.987895 683.458496 1004.645691 682.866455 C 1006.286641 682.274373 1007.614624 681.809163 1008.629639 681.470825 L 1008.629639 681.470825 L 1004.315857 685.657654 C 1004.73879 685.150167 1005.313944 684.236674 1006.041321 682.917175 C 1006.751851 681.614604 1007.487732 680.134399 1008.248962 678.476563 C 1009.010234 676.835693 1009.729187 675.338582 1010.405823 673.985229 C 1011.082458 672.631917 1011.547668 671.6592 1011.801453 671.067078 L 1011.801453 671.067078 L 1016.368896 671.574646 L 1016.368896 731.966797 C 1016.368896 734.842651 1016.876404 737.084106 1017.891418 738.691162 C 1018.906392 740.298258 1020.851807 741.101807 1023.727661 741.101807 L 1023.727661 741.101807 C 1025.588501 741.101807 1027.517008 740.653524 1029.513184 739.756958 C 1031.492432 738.877238 1033.285563 737.718445 1034.892578 736.280579 L 1034.892578 736.280579 L 1038.318237 741.736145 C 1035.273234 744.189067 1032.295898 746.032979 1029.38623 747.267883 C 1026.459717 748.48586 1023.643107 749.094849 1020.936401 749.094849 Z M 1034.511963 691.113281 L 1014.212036 691.113281 L 1014.212036 684.515808 L 1035.146362 684.515808 L 1034.511963 691.113281 Z M 1076.761108 748.460449 L 1076.761108 748.460449 C 1070.41744 748.460449 1065.088745 747.06486 1060.775024 744.273682 C 1056.461222 741.482422 1053.230143 737.633891 1051.081787 732.728088 C 1048.916423 727.822286 1047.83374 722.282104 1047.83374 716.107544 L 1047.83374 716.107544 C 1047.83374 709.848389 1048.806437 704.26591 1050.751831 699.360107 C 1052.697306 694.454305 1055.700033 690.580404 1059.76001 687.738403 C 1063.819987 684.91333 1068.937256 683.500793 1075.111816 683.500793 L 1075.111816 683.500793 C 1081.032633 683.500793 1085.726969 684.727254 1089.194824 687.180176 C 1092.66276 689.633057 1095.18335 693.058655 1096.756592 697.45697 C 1098.312907 701.855286 1099.091064 706.930257 1099.091064 712.681885 L 1099.091064 712.681885 L 1097.061035 716.741943 L 1055.953735 716.741943 L 1055.953735 711.032593 L 1092.620483 708.241333 L 1088.560425 712.681885 C 1088.560425 711.582357 1088.577352 710.499715 1088.611206 709.43396 C 1088.661906 708.385132 1088.687256 707.226339 1088.687256 705.957581 L 1088.687256 705.957581 C 1088.687256 701.474711 1087.54541 697.62618 1085.261719 694.411987 C 1082.977946 691.197876 1079.467773 689.59082 1074.731201 689.59082 L 1074.731201 689.59082 C 1071.601563 689.59082 1068.979492 690.368978 1066.86499 691.925293 C 1064.750407 693.498535 1063.101034 695.596191 1061.91687 698.218262 C 1060.732707 700.840332 1059.886882 703.648478 1059.379395 706.6427 C 1058.871908 709.653849 1058.618164 712.639628 1058.618164 715.600037 L 1058.618164 715.600037 C 1058.618164 718.391256 1058.956462 721.241699 1059.633057 724.151367 C 1060.309814 727.077962 1061.367147 729.809977 1062.805054 732.347412 C 1064.242879 734.884928 1066.044474 736.914917 1068.209839 738.437378 C 1070.358195 739.95992 1072.954875 740.721191 1075.999878 740.721191 L 1075.999878 740.721191 C 1079.975301 740.721191 1083.756185 740.103719 1087.342529 738.868774 C 1090.945719 737.650798 1093.677734 736.492025 1095.538574 735.392456 L 1095.538574 735.392456 L 1098.83728 740.974915 C 1099.091105 740.72113 1098.795085 740.949504 1097.949219 741.660034 C 1097.103353 742.387451 1095.733073 743.275553 1093.838379 744.324341 C 1091.926839 745.390137 1089.55009 746.345947 1086.70813 747.191772 C 1083.883016 748.037557 1080.567342 748.460449 1076.761108 748.460449 Z M 1110.12915 747.826172 L 1110.12915 747.826172 L 1109.494751 741.736145 L 1123.704712 738.818115 L 1118.629761 743.51239 C 1118.798869 742.835714 1119.027222 741.651571 1119.314819 739.959961 C 1119.619344 738.268311 1119.915405 736.466675 1120.203003 734.555054 C 1120.507528 732.6604 1120.65979 731.205566 1120.65979 730.190552 L 1120.65979 730.190552 L 1120.65979 702.024536 C 1120.65979 700.924927 1120.532878 699.419312 1120.279053 697.50769 C 1120.025309 695.613078 1119.729289 693.709981 1119.390991 691.798401 C 1119.052612 689.903748 1118.798869 688.533508 1118.629761 687.687683 L 1118.629761 687.687683 L 1123.704712 693.523926 L 1109.748535 691.113281 L 1110.382935 684.515808 L 1126.115356 684.515808 L 1128.525879 686.799561 L 1130.302124 705.830688 L 1126.49585 701.770752 C 1127.42627 699.486979 1128.483561 697.262451 1129.667725 695.097168 C 1130.851969 692.94873 1132.306803 690.986389 1134.032227 689.210144 C 1135.774658 687.433899 1137.931519 686.012919 1140.502808 684.947205 C 1143.091024 683.898336 1146.245972 683.373901 1149.967651 683.373901 L 1149.967651 683.373901 C 1151.40564 683.373901 1152.818197 683.475403 1154.205322 683.678406 C 1155.609456 683.898336 1156.988159 684.219767 1158.341431 684.6427 L 1158.341431 684.6427 L 1157.199463 705.069458 L 1149.967651 704.688843 L 1149.967651 698.09137 C 1149.967651 697.668437 1149.798503 696.864909 1149.460205 695.680786 C 1149.121826 694.496623 1148.71582 693.202494 1148.242188 691.798401 C 1147.785482 690.411235 1147.345662 689.252441 1146.922729 688.322021 L 1146.922729 688.322021 L 1152.885864 691.620789 C 1152.039998 691.705383 1151.168783 691.747681 1150.272217 691.747681 C 1149.392497 691.747681 1148.529744 691.747681 1147.68396 691.747681 L 1147.68396 691.747681 C 1141.593953 691.747681 1137.170247 693.566203 1134.412842 697.203247 C 1131.672363 700.840291 1130.302124 705.661499 1130.302124 711.66687 L 1130.302124 711.66687 L 1130.302124 726.384399 C 1130.302124 729.683105 1130.428996 733.066406 1130.682739 736.534302 C 1130.936483 740.002197 1131.190267 742.497396 1131.444092 744.019897 L 1131.444092 744.019897 L 1126.749756 739.325562 L 1143.750854 740.594238 L 1142.989502 747.191772 L 1124.085327 747.191772 C 1123.239461 747.191772 1122.013021 747.234049 1120.406006 747.318604 C 1118.79891 747.403239 1117.081868 747.487834 1115.254883 747.572388 C 1113.444743 747.656942 1111.736165 747.741536 1110.12915 747.826172 Z"/>
    <path id="terminal" fill="#35185a" stroke="none" d="M 359.720001 450.29364 L 359.720001 749.094849 L 740.012329 749.094849 L 740.012329 450.29364 Z M 441.214996 677.485291 L 414.052856 650.314575 L 468.37738 595.990295 L 414.052856 541.665466 L 441.214996 514.498962 L 522.706116 595.990295 Z M 673.334534 672.540222 L 549.868225 672.540222 L 549.868225 636.11731 L 673.334534 636.11731 Z"/>
</svg>
